<svg width="18" height="18" viewBox="0 0 18 18" fill="none" xmlns="http://www.w3.org/2000/svg">
<path d="M15.0229 7.14804L9.39791 12.773C9.34567 12.8253 9.28364 12.8668 9.21535 12.8951C9.14706 12.9234 9.07387 12.938 8.99995 12.938C8.92602 12.938 8.85283 12.9234 8.78454 12.8951C8.71626 12.8668 8.65422 12.8253 8.60198 12.773L2.97698 7.14804C2.87143 7.04249 2.81213 6.89934 2.81213 6.75007C2.81213 6.6008 2.87143 6.45765 2.97698 6.3521C3.08253 6.24655 3.22568 6.18726 3.37495 6.18726C3.52421 6.18726 3.66737 6.24655 3.77292 6.3521L8.99995 11.5798L14.227 6.3521C14.2792 6.29984 14.3413 6.25838 14.4096 6.2301C14.4778 6.20181 14.551 6.18726 14.6249 6.18726C14.6989 6.18726 14.772 6.20181 14.8403 6.2301C14.9086 6.25838 14.9707 6.29984 15.0229 6.3521C15.0752 6.40436 15.1166 6.46641 15.1449 6.53469C15.1732 6.60297 15.1878 6.67616 15.1878 6.75007C15.1878 6.82398 15.1732 6.89716 15.1449 6.96545C15.1166 7.03373 15.0752 7.09578 15.0229 7.14804Z"
      opacity="0.4" fill="black"/>
</svg>
